<?xml version="1.0" encoding="UTF-8" standalone="no"?>
<!DOCTYPE svg PUBLIC "-//W3C//DTD SVG 1.1//EN" "http://www.w3.org/Graphics/SVG/1.1/DTD/svg11.dtd">
<svg xmlns="http://www.w3.org/2000/svg" xmlns:xlink="http://www.w3.org/1999/xlink" xmlns:serif="http://www.serif.com/" width="100%" height="100%" viewBox="0 0 945 170" version="1.1" xml:space="preserve" style="fill-rule:evenodd;clip-rule:evenodd;stroke-linejoin:round;stroke-miterlimit:2;">
  <g>
    <path d="M176.796,82.938c4.842,-6.091 8.152,-10.496 9.929,-13.214c11.772,-18.02 18.852,-29.94 27.126,-45.264c3.948,-7.311 8.948,-14.728 16.223,-18.912c10.874,-6.259 22.787,-1.013 29.538,7.831c9.187,12.035 17.793,22.381 23.226,38.083c6.08,17.572 9.196,35.339 10.319,53.645c0.461,7.541 0.49,15.161 0.466,23.24c-0.006,2.453 0.999,6.9 1.058,9.477c0.385,17.31 -21.092,28.243 -32.185,11.678c-10.331,-15.419 -22.966,-29.538 -36.086,-42.953c-4.882,-4.994 -5.289,-12.571 -0.195,-17.577c9.355,-9.184 23.823,-3.888 32.77,2.624c0.103,0.075 0.14,0.05 0.113,-0.076c-3.582,-15.136 -8.517,-29.857 -15.159,-43.917c-2.597,-5.488 -5.162,-10.985 -7.695,-16.489c-0.015,-0.029 -0.046,-0.047 -0.079,-0.047c-0.03,-0 -0.058,0.015 -0.075,0.041c-4.054,6.755 -8.279,14.663 -11.754,20.472c-10.603,17.724 -21.046,32.434 -33.457,48.001c-6.997,8.776 -14.053,18.072 -20.247,26.476c-4.06,5.514 -6.796,11.247 -9.645,17.482c-2.677,5.874 -7.925,11.323 -14.899,10.579c-8.008,-0.852 -9.509,-8.109 -7.831,-14.87c3.03,-12.194 4.921,-20.864 5.674,-26.009c1.036,-7.088 2.108,-15.414 3.215,-24.976c1.572,-13.628 2.724,-28.893 -2.654,-41.777c-2.901,-6.938 -7.145,-15.076 -14.177,-18.628c-9.492,-4.799 -22.293,-4.474 -33.084,-1.732c-20.815,5.296 -40.507,20.614 -52.989,38.237c-7.503,10.594 -13.977,23.51 -16.861,36.305c-2.783,12.334 0.645,25.702 12.045,32.286c8.179,4.724 17.757,5.445 26.193,2.985c12.155,-3.546 27.066,-15.989 33.285,-29.429c6.957,-15.038 12.963,-49.144 8.462,-60.798c-1.344,-3.479 -5.159,-7.21 -7.889,-7.931c-0.893,-0.237 -1.833,0.236 -2.53,0.697c-0.815,0.544 -0.991,0.382 -0.526,-0.485c3.156,-5.892 6.152,-9.497 13.008,-11.016c11.347,-2.517 21.246,4.273 25.099,14.929c3.081,8.526 4.494,17.33 4.238,26.411c-0.702,24.867 -9.574,50.122 -25.236,69.743c-9.192,11.513 -20.783,20.062 -34.774,25.649c-8.646,3.452 -17.942,5.987 -27.008,5.963c-12.517,-0.029 -23.894,-4.657 -33.568,-12.582c-23.509,-19.257 -21.164,-50.453 -10.095,-74.914c6.201,-13.703 14.472,-26.567 24.527,-37.942c8.061,-9.125 17.67,-16.878 27.859,-23.775c22.802,-15.435 56.032,-26.619 83.472,-16.714c9.94,3.588 18.161,12.382 23.87,21.518c10.059,16.099 10.886,36.672 9.367,55.022c-0.047,0.579 -0.211,1.446 -0.49,2.6c-0.044,0.181 -0.008,0.199 0.106,0.053Z" style="fill:#1a1a1a;fill-rule:nonzero;"/>
    <g>
      <path d="M453.672,169.673c-10.27,-0 -19.423,-2.196 -27.459,-6.586c-8.036,-4.39 -14.328,-10.407 -18.875,-18.051c-4.547,-7.644 -6.821,-16.366 -6.821,-26.166c0,-9.8 2.274,-18.561 6.821,-26.283c4.547,-7.723 10.839,-13.838 18.875,-18.346c8.036,-4.508 17.189,-6.762 27.459,-6.762c10.349,0 19.482,2.254 27.401,6.762c7.918,4.508 14.111,10.623 18.58,18.346c4.469,7.722 6.703,16.483 6.703,26.283c0,9.8 -2.234,18.522 -6.703,26.166c-4.469,7.644 -10.662,13.661 -18.58,18.051c-7.919,4.39 -17.052,6.586 -27.401,6.586Zm0,-24.814c4.939,0 9.232,-1.117 12.877,-3.351c3.646,-2.235 6.468,-5.331 8.467,-9.291c1.999,-3.959 2.999,-8.447 2.999,-13.465c0,-5.017 -1,-9.525 -2.999,-13.524c-1.999,-3.998 -4.821,-7.153 -8.467,-9.466c-3.645,-2.313 -7.938,-3.469 -12.877,-3.469c-4.939,-0 -9.231,1.156 -12.877,3.469c-3.646,2.313 -6.488,5.468 -8.526,9.466c-2.038,3.999 -3.057,8.507 -3.057,13.524c-0,5.018 1.019,9.506 3.057,13.465c2.038,3.96 4.88,7.056 8.526,9.291c3.646,2.234 7.938,3.351 12.877,3.351Z" style="fill:#1a1a1a;fill-rule:nonzero;"/>
      <path d="M602.317,166.85l0,-16.816c-0.706,1.724 -2.509,4.155 -5.41,7.291c-2.9,3.136 -6.801,5.978 -11.701,8.526c-4.9,2.548 -10.642,3.822 -17.228,3.822c-9.251,-0 -17.444,-2.215 -24.578,-6.645c-7.134,-4.429 -12.72,-10.505 -16.758,-18.228c-4.037,-7.722 -6.056,-16.444 -6.056,-26.165c-0,-9.722 2.019,-18.444 6.056,-26.166c4.038,-7.722 9.624,-13.818 16.758,-18.287c7.134,-4.468 15.327,-6.703 24.578,-6.703c6.429,0 12.015,1.078 16.758,3.234c4.743,2.156 8.585,4.665 11.525,7.527c2.94,2.861 4.841,5.429 5.703,7.702l0,-15.64l29.635,-0l0,96.548l-29.282,0Zm-52.449,-48.215c-0,5.409 1.215,10.172 3.645,14.288c2.431,4.116 5.645,7.311 9.644,9.584c3.998,2.274 8.349,3.411 13.053,3.411c4.939,-0 9.33,-1.157 13.171,-3.47c3.842,-2.312 6.88,-5.527 9.114,-9.643c2.234,-4.116 3.352,-8.839 3.352,-14.17c-0,-5.331 -1.118,-10.055 -3.352,-14.171c-2.234,-4.116 -9.114,-9.702 -9.114,-9.702c0,0 -8.232,-3.528 -13.171,-3.528c-4.704,0 -9.055,1.157 -13.053,3.469c-3.999,2.313 -7.213,5.527 -9.644,9.643c-2.43,4.116 -3.645,8.879 -3.645,14.289Z" style="fill:#1a1a1a;fill-rule:nonzero;"/>
      <path d="M684.048,166.85l-29.87,0l0,-96.548l29.87,-0l0,15.64l-0.588,0c0.549,-1.881 2.058,-4.273 4.528,-7.173c2.469,-2.901 5.899,-5.508 10.29,-7.821c4.39,-2.312 9.682,-3.469 15.875,-3.469c4.469,0 8.526,0.647 12.172,1.941c3.646,1.293 6.252,2.567 7.82,3.822l-11.76,24.46c-1.019,-1.254 -2.92,-2.548 -5.703,-3.881c-2.783,-1.332 -6.252,-1.999 -10.408,-1.999c-4.939,0 -9.055,1.353 -12.348,4.057c-3.292,2.705 -5.762,5.998 -7.408,9.879c-1.647,3.88 -2.47,7.506 -2.47,10.878l0,50.214Z" style="fill:#1a1a1a;fill-rule:nonzero;"/>
      <path d="M746.846,166.85l-0,-96.548l29.752,-0l0,96.548l-29.752,0Zm15.288,-121.479c-4.939,-0 -9.114,-1.725 -12.524,-5.175c-3.411,-3.449 -5.116,-7.565 -5.116,-12.348c-0,-4.782 1.725,-8.937 5.174,-12.465c3.45,-3.528 7.605,-5.292 12.466,-5.292c3.214,-0 6.154,0.804 8.82,2.411c2.665,1.607 4.821,3.743 6.468,6.409c1.646,2.665 2.469,5.645 2.469,8.937c0,4.783 -1.744,8.899 -5.233,12.348c-3.489,3.45 -7.663,5.175 -12.524,5.175Z" style="fill:#1a1a1a;fill-rule:nonzero;"/>
      <path d="M844.453,67.479c5.802,0 11.172,0.529 16.111,1.588c4.939,1.058 9.114,2.254 12.524,3.587c3.411,1.332 5.665,2.469 6.762,3.41l-10.231,17.993c-1.568,-1.255 -4.371,-2.744 -8.408,-4.469c-4.038,-1.725 -8.526,-2.587 -13.465,-2.587c-4.469,-0 -8.232,0.764 -11.29,2.293c-3.057,1.529 -4.586,3.822 -4.586,6.879c-0,3.058 1.646,5.488 4.939,7.291c3.293,1.804 7.879,3.372 13.759,4.704c4.939,1.02 9.8,2.568 14.582,4.646c4.783,2.077 8.742,5.056 11.878,8.937c3.136,3.881 4.704,9.036 4.704,15.464c-0,6.351 -1.353,11.623 -4.057,15.817c-2.705,4.195 -6.292,7.507 -10.761,9.937c-4.468,2.431 -9.368,4.156 -14.699,5.175c-5.332,1.019 -10.624,1.529 -15.876,1.529c-6.821,-0 -12.819,-0.647 -17.993,-1.941c-5.174,-1.293 -9.427,-2.783 -12.759,-4.469c-3.332,-1.685 -5.704,-3.116 -7.115,-4.292l10.231,-19.992c2.038,1.803 5.39,3.783 10.055,5.939c4.664,2.156 9.702,3.234 15.111,3.234c5.645,0 10.094,-0.98 13.348,-2.94c3.253,-1.96 4.88,-4.586 4.88,-7.879c-0,-2.43 -0.784,-4.41 -2.352,-5.939c-1.568,-1.529 -3.724,-2.803 -6.468,-3.822c-2.744,-1.019 -5.958,-1.921 -9.643,-2.705c-3.371,-0.705 -6.821,-1.744 -10.349,-3.116c-3.528,-1.372 -6.821,-3.195 -9.878,-5.468c-3.058,-2.274 -5.527,-5.116 -7.409,-8.526c-1.881,-3.411 -2.822,-7.507 -2.822,-12.289c-0,-6.115 1.96,-11.231 5.88,-15.347c3.92,-4.116 9.016,-7.252 15.288,-9.408c6.272,-2.156 12.975,-3.234 20.109,-3.234Z" style="fill:#1a1a1a;fill-rule:nonzero;"/>
    </g>
    <path d="M925.714,169.673c-5.253,-0 -9.761,-1.882 -13.524,-5.645c-3.763,-3.763 -5.645,-8.271 -5.645,-13.524c0,-5.41 1.882,-9.996 5.645,-13.759c3.763,-3.763 8.271,-5.645 13.524,-5.645c5.409,0 9.976,1.882 13.7,5.645c3.724,3.763 5.586,8.349 5.586,13.759c-0,5.253 -1.862,9.761 -5.586,13.524c-3.724,3.763 -8.291,5.645 -13.7,5.645Z" style="fill:#3b7a6b;fill-rule:nonzero;"/>
  </g>
</svg>
